<?xml version="1.0" standalone="no"?><!DOCTYPE svg PUBLIC "-//W3C//DTD SVG 1.1//EN" "http://www.w3.org/Graphics/SVG/1.1/DTD/svg11.dtd"><svg t="1586058708776" class="icon" viewBox="0 0 1024 1024" version="1.1" xmlns="http://www.w3.org/2000/svg" p-id="1344" xmlns:xlink="http://www.w3.org/1999/xlink" width="170" height="170"><defs><style type="text/css"></style></defs><path d="M971.101 430.107l-1.326-1.326-1.473-1.326-397.388-350.844c-15.614-15.17-36.084-23.419-57.886-23.419s-42.272 8.247-57.886 23.419l-400.039 353.495c-23.861 24.303-30.783 60.537-17.527 92.057 6.188 14.581 16.201 27.102 29.015 36.233 13.994 10.016 30.637 15.17 48.163 15.17h10.458v306.951c0 46.101 37.558 83.661 83.661 83.661h141.398c46.101 0 83.661-37.558 83.661-83.661v-173.803h156.127v173.803c0 46.101 37.558 83.661 83.661 83.661h141.398c46.101 0 83.661-37.558 83.661-83.661v-306.951h12.521c17.38 0 34.025-5.302 48.163-15.17 12.815-9.132 22.83-21.651 29.015-36.233 13.403-31.668 6.481-67.754-17.38-92.057zM911.449 520.101h-65.986v360.271c0 16.791-13.55 30.342-30.342 30.342h-141.398c-16.791 0-30.342-13.55-30.342-30.342v-227.12h-262.764v227.12c0 16.791-13.55 30.342-30.342 30.342h-141.398c-16.791 0-30.342-13.55-30.342-30.342v-360.271h-63.922c-26.954 0-40.505-33.287-21.357-52.732l398.419-351.58c5.891-6.039 13.697-8.987 21.357-8.987 7.806 0 15.466 2.946 21.357 8.987l398.419 351.727c19.148 19.442 5.596 52.582-21.357 52.582z" p-id="1345" fill="#BEC9D7"></path></svg>